<?xml version="1.0" encoding="utf-8"?>
<!-- Generator: Adobe Illustrator 23.0.5, SVG Export Plug-In . SVG Version: 6.00 Build 0)  -->
<svg version="1.1" id="Layer_1" xmlns="http://www.w3.org/2000/svg" xmlns:xlink="http://www.w3.org/1999/xlink" x="0px" y="0px"
	 viewBox="0 0 310.47 372.1" style="enable-background:new 0 0 310.47 372.1;" xml:space="preserve">
<style type="text/css">
	.st0{fill:#E6353F;}
	.st1{fill:#FE4A4A;}
	.st2{fill:#696969;}
	.st3{fill:#190835;}
	.st4{fill:#FAE1D9;}
	.st5{fill:#E39542;}
	.st6{fill:#E18424;}
	.st7{fill:#DCD9EA;}
	.st8{fill:#464146;}
	.st9{fill:#190A35;}
	.st10{fill:#FDA92C;}
</style>
<g>
	<path class="st3" d="M280.27,285.74c6.81,0,13.05,0.05,19.28-0.02c4.41-0.04,7.8,1.67,9.78,5.64c2.08,4.16,1.19,8-1.74,11.46
		c-18.43,21.72-36.84,43.46-55.33,65.14c-4.72,5.54-11.32,5.49-16.15-0.08c-7.36-8.49-14.58-17.1-21.51-25.25
		c-8.37,5.16-16.26,10.67-24.72,15.1c-22.63,11.85-47.04,15.46-72.28,14.09c-28.73-1.57-54.87-10.59-77.12-29.15
		c-26.84-22.39-41.35-50.92-40.45-86.35c0.5-19.64,6.64-37.73,16.56-54.59c15.54-26.42,35.09-49.78,55.45-72.51
		c1.5-1.67,2.97-3.37,4.43-5.08c0.15-0.17,0.16-0.46,0.24-0.75c-10.22-5.98-15.35-14.76-12.86-26.58
		c2.41-11.46,10.42-17.4,22.47-19.1c-6.32-6.3-12.29-12.27-18.29-18.22c-4.83-4.79-7.48-10.51-7.56-17.38
		c-0.2-18.31,18.71-30.18,35.14-22.04c5.54,2.75,6.13,2.51,8.12-3.38c3.4-10.05,12.87-16.8,23.4-16.69
		c10.36,0.11,19.54,6.92,22.82,16.94c1.81,5.51,2.65,5.87,7.61,3.34c10.67-5.45,23.58-2.63,30.65,6.7
		c7.24,9.56,6.73,22.44-1.53,31.28c-5.28,5.66-10.9,11.01-16.36,16.51c-0.86,0.86-1.67,1.77-2.78,2.94
		c12.39,1.8,20.21,8.27,22.57,20.41c1.89,9.75-2.74,18.42-13.3,25.38c10.4,12.07,20.78,24.11,31.21,36.22
		c3.69-9.64,7.21-12.04,17.44-12.04c13,0,25.99-0.01,38.99,0c10.07,0.01,15.77,5.68,15.78,15.81c0.03,39.11,0.01,78.23,0.01,117.34
		C280.27,282.33,280.27,283.81,280.27,285.74z M208.09,285.74c0.08-1.23,0.19-2.08,0.19-2.92c0.01-33.36,0.04-66.73-0.08-100.09
		c-0.01-1.79-0.9-3.92-2.07-5.32c-13.97-16.65-28.03-33.21-42.21-49.68c-1.03-1.2-3.15-2.06-4.77-2.07
		c-21.62-0.13-43.23-0.13-64.85,0c-1.51,0.01-3.39,0.87-4.44,1.96c-4.52,4.67-8.84,9.52-13.14,14.39
		c-18.29,20.72-35.84,42-49.85,65.96c-8.37,14.32-13.96,29.61-14.84,46.26c-1.61,30.64,10.16,55.83,32.56,76.14
		c19.55,17.73,42.97,26.87,69.14,29.09c24.47,2.07,48.18-0.83,70.27-12.18c7.81-4.01,15.05-9.12,22.78-13.87
		c-8.96-10.57-17.16-20.32-25.46-29.99c-3.03-3.53-4.33-7.32-2.35-11.71c2.05-4.55,5.86-6.1,10.68-6
		C195.72,285.84,201.81,285.74,208.09,285.74z M192.26,297.74c17.62,20.75,34.64,40.81,51.95,61.19
		c17.28-20.36,34.36-40.47,51.96-61.19c-6.84,0-12.8,0-18.76,0c-7.67,0-9.14-1.48-9.14-9.2c0-41.24,0-82.49,0-123.73
		c0-4.96-0.16-5.12-5-5.12c-12.5-0.01-25,0-37.49,0c-5.48,0-5.48,0-5.48,5.66c0,41.37,0,82.74-0.01,124.1c0,6.33-1.97,8.28-8.3,8.29
		C205.74,297.75,199.5,297.74,192.26,297.74z M126.63,77.94c6.87,0,13.75,0.12,20.61-0.09c1.66-0.05,3.7-0.77,4.87-1.9
		c8.43-8.18,16.71-16.51,24.96-24.87c4.99-5.05,5.61-11.52,1.79-16.63c-3.81-5.09-10.24-6.3-16.43-3.11
		c-10.56,5.44-20.03,1.53-23.61-9.76c-1.91-6.02-6.31-9.55-11.92-9.57c-5.62-0.02-10.16,3.54-12.05,9.46
		c-3.68,11.56-12.9,15.33-23.82,9.74c-5.94-3.04-12.42-1.78-16.13,3.16c-3.72,4.95-3.23,11.62,1.44,16.36
		c8.42,8.55,16.9,17.02,25.48,25.41c1.02,0.99,2.77,1.68,4.21,1.72C112.88,78.03,119.76,77.93,126.63,77.94z M126.68,113.56
		c0-0.01,0-0.01,0-0.02c13.23,0,26.46,0.12,39.69-0.05c7.2-0.09,12.22-5.36,12.06-12.06c-0.16-6.48-5.35-11.38-12.29-11.47
		c-6.11-0.08-12.23-0.02-18.35-0.02c-19.97,0-39.94-0.02-59.91,0.02c-6.29,0.01-10.93,3.48-12.25,8.95
		c-1.86,7.74,3.59,14.52,12.11,14.62C100.72,113.67,113.7,113.56,126.68,113.56z"/>
	<path class="st10" d="M120.6,296.61c-5.29-2.02-10.11-3.41-14.49-5.65c-7.9-4.03-13.17-10.56-15.88-19.05
		c-1.44-4.52-0.07-7.71,3.62-8.85c3.53-1.09,6.24,0.66,7.78,5.01c4.02,11.37,15.46,17.82,28.96,15.85c4.25-0.62,8.64-1.77,12.45-3.7
		c10.71-5.4,11.6-18.6,1.46-25.13c-4.58-2.95-10.23-4.37-15.54-6.02c-5.1-1.59-10.52-2.22-15.57-3.94
		c-13.63-4.64-20.72-14.08-20.56-26.69c0.16-12.4,8.48-22.91,21.54-27.11c1.89-0.61,3.84-1.05,6.21-1.7c0-2.56-0.08-5.14,0.02-7.71
		c0.14-3.64,2.46-6.08,5.71-6.2c3.16-0.11,5.8,2.32,6.18,5.82c0.15,1.36,0.06,2.75,0.07,4.12c0.01,1.24,0,2.48,0,3.88
		c2.08,0.58,3.99,1.05,5.86,1.63c9.84,3.06,16.98,9.25,21.35,18.59c1.87,4.01,0.98,7.48-2.21,9.04c-3.21,1.57-6.63,0.22-8.47-3.73
		c-7.08-15.22-25.05-16.45-35.89-10.14c-5.6,3.26-8.62,8.09-8.4,14.81c0.21,6.33,3.74,10.51,9.15,12.5
		c6.5,2.39,13.38,3.82,20.13,5.5c8.75,2.18,16.91,5.37,22.96,12.45c10.45,12.22,8.16,30.26-5.43,38.81
		c-4.74,2.98-10.4,4.73-15.87,6.23c-2.75,0.75-3.39,1.7-3.22,4.18c0.12,1.85,0.16,3.79-0.24,5.59c-0.71,3.19-2.9,4.99-6.24,4.71
		c-3.3-0.28-5.23-2.27-5.41-5.61C120.49,301.5,120.6,298.88,120.6,296.61z"/>
</g>
</svg>
