<?xml version="1.0" encoding="utf-8"?>
<!-- Generator: Adobe Illustrator 23.0.5, SVG Export Plug-In . SVG Version: 6.00 Build 0)  -->
<svg version="1.1" id="Layer_1" xmlns="http://www.w3.org/2000/svg" xmlns:xlink="http://www.w3.org/1999/xlink" x="0px" y="0px"
	 viewBox="0 0 324.21 384" style="enable-background:new 0 0 324.21 384;" xml:space="preserve">
<style type="text/css">
	.st0{fill:#E6353F;}
	.st1{fill:#FE4A4A;}
	.st2{fill:#696969;}
	.st3{fill:#190835;}
	.st4{fill:#FAE1D9;}
	.st5{fill:#E39542;}
	.st6{fill:#E18424;}
	.st7{fill:#DCD9EA;}
	.st8{fill:#464146;}
	.st9{fill:#190A35;}
	.st10{fill:#FDA92C;}
</style>
<g>
	<path class="st9" d="M165.07,384c-2,0-4,0-6,0c-27.57-11.11-52.85-26.09-74.8-46.16C28.83,287.17,0.79,224.1,0.1,148.98
		c-0.21-23.24-0.03-46.49-0.03-69.73c0-10.47,2.75-14.41,12.48-18.44C61.4,40.57,110.23,20.28,159.07,0c2,0,4,0,6,0
		c1.38,0.56,2.76,1.11,4.13,1.68c48.04,19.95,96.07,39.93,144.12,59.84c7.32,3.03,10.81,8.29,10.78,16.24
		c-0.1,22.99,0.41,46-0.19,68.98c-0.4,15.31-1.22,30.76-3.71,45.85c-8.61,52.19-32.08,97.04-69.16,134.71
		C226.44,352.28,197.59,370.95,165.07,384z M295.01,129.15c-0.31-0.02-0.63-0.04-0.94-0.06c0-13.12-0.09-26.25,0.07-39.37
		c0.03-2.82-0.86-4.09-3.47-5.16c-41.86-17.29-83.66-34.72-125.52-51.99c-1.72-0.71-4.23-0.75-5.94-0.04
		C117.22,49.83,75.31,67.3,33.34,84.65c-2.42,1-3.36,2.13-3.34,4.85c0.13,20.25,0.06,40.5,0.08,60.74
		c0.01,14.78,1.26,29.47,4.46,43.91c16.12,72.72,57.96,125.08,125.03,157.29c1.41,0.68,3.7,0.63,5.14-0.03
		c32.64-14.91,60.12-36.45,82.23-64.72c24.05-30.76,39.28-65.49,44.55-104.13C293.91,164.93,293.92,146.97,295.01,129.15z"/>
	<path class="st10" d="M145.49,200.6c1.15-1.08,2.15-1.98,3.1-2.93c20.14-20.13,40.3-40.25,60.4-60.43c4.2-4.21,9.04-6.26,14.9-4.92
		c10.86,2.49,15.24,15.21,8.34,23.96c-0.85,1.07-1.84,2.04-2.81,3.01c-23.84,23.85-47.69,47.7-71.54,71.54
		c-8.28,8.28-16.44,8.29-24.7,0.05c-13.26-13.24-26.51-26.48-39.74-39.75c-4.31-4.32-5.99-9.45-4.16-15.4
		c1.78-5.76,5.8-9.25,11.67-10.39c5.48-1.07,10.04,0.91,13.9,4.77c9.18,9.19,18.37,18.37,27.56,27.55
		C143.36,198.62,144.36,199.53,145.49,200.6z"/>
</g>
</svg>
