<?xml version="1.0" encoding="utf-8"?>
<!-- Generator: Adobe Illustrator 23.0.5, SVG Export Plug-In . SVG Version: 6.00 Build 0)  -->
<svg version="1.1" id="Layer_1" xmlns="http://www.w3.org/2000/svg" xmlns:xlink="http://www.w3.org/1999/xlink" x="0px" y="0px"
	 viewBox="0 0 384 368.55" style="enable-background:new 0 0 384 368.55;" xml:space="preserve">
<style type="text/css">
	.st0{fill:#E6353F;}
	.st1{fill:#FE4A4A;}
	.st2{fill:#696969;}
	.st3{fill:#190835;}
	.st4{fill:#FAE1D9;}
	.st5{fill:#E39542;}
	.st6{fill:#E18424;}
	.st7{fill:#DCD9EA;}
	.st8{fill:#464146;}
	.st9{fill:#190A35;}
	.st10{fill:#FDA92C;}
</style>
<g>
	<path class="st3" d="M384,268.5c-1.23,6.47-2.01,13.07-3.76,19.4c-10.81,39.15-35.44,65.78-73.48,79.85
		c-2.99,1.1-7.06,1.05-10.09-0.01c-28.86-10.12-50.36-28.92-64.62-55.98c-0.51-0.97-1.07-1.91-1.42-2.52
		c-9.2,2.81-17.96,6.25-27.05,8.14c-46.81,9.73-88.3-1.4-123.37-33.89c-24.01-22.24-23.18-61.35,1.65-83.04
		c17.54-15.32,29.8-33.53,37.38-55.47c8.02-23.22,29.75-37.82,54.49-37.81c24.62,0.01,46.11,14.53,54.34,37.52
		c6.14,17.15,14.22,32.96,27.09,46.1c2.52,2.57,4.54,3.54,8.31,2.14c10.75-4,21.75-7.31,32.6-11.05c3.72-1.28,7.22-1.34,10.95-0.08
		c22.58,7.6,45.18,15.14,67.81,22.57c4.53,1.49,7.39,4.39,9.15,8.64C384,231.5,384,250,384,268.5z M222.71,287.18
		c-0.52-2.6-1.09-5.01-1.48-7.45c-3.4-21.5-1.55-43.15-1.74-64.74c-0.05-5.15,3.14-8.51,7.99-10.19c2.41-0.84,4.82-1.66,7.66-2.64
		c-13.05-14.71-21.69-31.28-27.98-49.26c-5.08-14.51-18.08-23.22-33.38-23.23c-15.49-0.02-28.24,8.87-33.7,23.4
		c-1.97,5.25-3.82,10.57-6.13,15.68c-8.1,17.91-19.68,33.22-34.6,46.05c-18.42,15.84-18.85,39.45-0.62,55.21
		c27.12,23.46,58.69,32.12,94.06,26.72C203.18,295.14,213.13,291.92,222.71,287.18z M361.63,223.95c-0.78-0.34-1.21-0.57-1.67-0.72
		c-18.81-6.29-37.62-12.6-56.46-18.78c-1.28-0.42-2.96-0.21-4.29,0.23c-18.26,5.99-36.47,12.1-54.73,18.09
		c-1.98,0.65-2.73,1.57-2.71,3.71c0.12,11.37-0.35,22.77,0.17,34.12c1.82,39.37,20.81,67.34,56.56,83.96c2.23,1.04,4.12,1,6.34,0.01
		c26.68-11.86,44.42-31.65,52.96-59.6C363.92,264.9,360.56,244.28,361.63,223.95z"/>
	<path class="st3" d="M228.97,0c24.53-0.05,44.7,20.04,44.67,44.5c-0.03,24.31-20,44.33-44.37,44.48
		c-24.34,0.15-44.69-20.14-44.67-44.56C184.62,20.13,204.68,0.05,228.97,0z M229.05,22.51c-12,0.03-21.93,9.96-21.93,21.94
		c0,11.97,9.9,21.92,21.9,22.02c12.07,0.09,22.24-10.1,22.12-22.17C251.01,32.27,241.08,22.47,229.05,22.51z"/>
	<path class="st3" d="M162.75,44.5c-0.01,24.33-19.93,44.33-44.32,44.48c-24.37,0.14-44.68-20.12-44.65-44.56
		C73.8,19.95,93.97-0.08,118.51,0C142.85,0.08,162.75,20.1,162.75,44.5z M118.38,22.51c-12.06-0.04-21.93,9.68-22.08,21.76
		c-0.16,12.09,9.95,22.26,22.07,22.19c12.04-0.07,21.87-9.95,21.87-21.98C140.25,32.44,130.4,22.55,118.38,22.51z"/>
	<path class="st3" d="M347.34,121.71c0.01,24.57-20.11,44.67-44.57,44.53c-24.42-0.14-44.23-20.05-44.24-44.49
		c-0.01-24.59,19.97-44.54,44.57-44.49C327.47,77.31,347.33,97.27,347.34,121.71z M324.83,121.8c0.02-12.12-9.69-21.95-21.74-22.03
		c-12.25-0.07-22.11,9.81-22.05,22.09c0.06,12.08,9.91,21.91,21.92,21.87C315.02,143.7,324.81,133.88,324.83,121.8z"/>
	<path class="st3" d="M0,121.59c0.05-24.47,20.23-44.43,44.8-44.32c24.26,0.11,44.32,20.37,44.17,44.62
		c-0.15,24.39-20.14,44.33-44.47,44.36C20.05,166.27-0.05,146.11,0,121.59z M22.5,121.91c0.07,11.99,10.07,21.89,22.04,21.82
		c12.02-0.07,21.91-9.99,21.92-21.98c0-12.16-10.06-22.1-22.26-21.98C32.2,99.9,22.43,109.86,22.5,121.91z"/>
	<path class="st10" d="M290,272.48c10.65-6.47,21.12-12.76,31.51-19.18c3.4-2.1,6.91-2.98,10.69-1.7c4.25,1.44,6.87,4.53,7.48,9
		c0.62,4.62-1.04,8.51-4.99,10.95c-14.01,8.66-28.08,17.25-42.24,25.67c-4.91,2.92-10.62,1.74-14.14-2.75
		c-4.47-5.7-8.79-11.52-12.88-17.49c-3.52-5.13-2.14-11.76,2.78-15.29c4.91-3.52,11.46-2.6,15.4,2.29
		C285.79,266.69,287.79,269.53,290,272.48z"/>
</g>
</svg>
