<?xml version="1.0" encoding="utf-8"?>
<!-- Generator: Adobe Illustrator 23.0.5, SVG Export Plug-In . SVG Version: 6.00 Build 0)  -->
<svg version="1.1" id="Layer_1" xmlns="http://www.w3.org/2000/svg" xmlns:xlink="http://www.w3.org/1999/xlink" x="0px" y="0px"
	 viewBox="0 0 360.19 409.6" style="enable-background:new 0 0 360.19 409.6;" xml:space="preserve">
<style type="text/css">
	.st0{fill:#E6353F;}
	.st1{fill:#FE4A4A;}
	.st2{fill:#696969;}
	.st3{fill:#190835;}
	.st4{fill:#FAE1D9;}
	.st5{fill:#E39542;}
	.st6{fill:#E18424;}
	.st7{fill:#DCD9EA;}
	.st8{fill:#464146;}
	.st9{fill:#190A35;}
	.st10{fill:#FDA92C;}
</style>
<g>
	<path class="st3" d="M8.91,409.6c-6.93-3.19-8.93-8.69-8.91-16.12c0.18-69.58,0.11-139.17,0.11-208.76
		c0-10.95,4.22-15.12,15.28-15.12c21.86,0,43.73,0.13,65.59-0.04c16-0.13,28.04,6.19,35.55,20.55c0.18,0.34,0.48,0.62,0.87,1.11
		c7.37-3.96,14.72-7.93,22.1-11.86c8.46-4.5,16.88-9.1,25.43-13.42c16.78-8.47,26.42-22.26,30.37-40.31
		c3.02-13.78,5.81-27.61,8.73-41.41c1.7-8.05,6.2-11.59,14.35-11.34c34.56,1.08,61.75,33.56,57.38,68.13
		c-2.05,16.24-8.21,31.05-14.47,45.9c-0.77,1.84-1.54,3.69-2.28,5.54c-0.09,0.22-0.01,0.5-0.01,1.16c1.39,0,2.8,0,4.21,0
		c19.73,0,39.46-0.06,59.19,0.02c14.95,0.07,26.66,6.18,33.56,19.71c6.47,12.69,5.47,25.26-2.71,36.97
		c-1.73,2.47-1.98,3.96-0.08,6.47c9.2,12.17,9.13,29.47-0.01,41.73c-1.49,2-2.14,3.38-0.34,5.81c14.4,19.52,6.32,46.4-16.38,54.95
		c-0.85,0.32-1.69,0.68-1.69,0.68c0.29,6.55,1.29,12.65,0.67,18.59c-1.61,15.55-13.9,27.85-29.46,30.43
		c-0.63,0.11-1.23,0.42-1.85,0.63c-38.67,0-77.33,0-116,0c-3.81-0.39-7.62-0.83-11.44-1.17c-20.99-1.86-41.55-5.87-61.72-11.98
		c-0.98-0.3-2.69-0.29-3.2,0.31c-6.06,7.11-13.99,10.77-22.84,12.84C62.24,409.6,35.58,409.6,8.91,409.6z M225.84,98.39
		c-2.22,10.12-4.52,19.95-6.53,29.84c-5.45,26.82-19.52,47.01-44.27,59.63c-17.43,8.89-34.45,18.57-51.72,27.76
		c-2.45,1.31-3.28,2.81-3.28,5.57c0.1,30.26,0.06,60.52,0.06,90.78c0,19.19,0.01,38.39-0.02,57.58c0,1.96,0.01,3.37,2.52,4.1
		c22.99,6.71,46.39,11.34,70.33,11.69c35.58,0.52,71.18,0.24,106.77,0.21c6.99-0.01,12.14-5.03,12.36-11.57
		c0.22-6.51-4.63-11.68-11.58-12.37c-7.71-0.76-12.59-5.68-12.35-12.44c0.25-6.95,5.61-11.54,13.59-11.58
		c7.06-0.03,14.13,0.03,21.19-0.02c7.78-0.06,13.17-5.02,13.15-12.01c-0.01-6.99-5.39-11.91-13.2-11.97
		c-7.2-0.05-14.4,0.03-21.59-0.02c-7.78-0.06-13.16-5.02-13.15-12.01c0.01-6.99,5.4-11.91,13.2-11.96c7.2-0.05,14.4,0.03,21.59-0.02
		c7.78-0.06,13.16-5.03,13.15-12.02c-0.02-6.99-5.4-11.91-13.2-11.96c-7.33-0.05-14.66,0.05-21.99-0.03
		c-7.45-0.08-12.76-5.16-12.74-12.01c0.02-6.85,5.33-11.86,12.81-11.95c6.66-0.08,13.33-0.02,19.99-0.02
		c9.55,0,15.16-4.47,15.14-12.03c-0.02-7.57-5.61-11.96-15.21-11.96c-34.52,0-69.05,0.02-103.57-0.02
		c-7.78-0.01-13.17-5.01-13.16-12c0.01-6.99,5.39-11.9,13.19-11.98c4.27-0.04,8.54,0.1,12.79-0.09c1.06-0.05,2.7-0.8,3.01-1.64
		c6.02-15.77,12.9-31.3,17.51-47.48C256.46,124.02,245.6,105.06,225.84,98.39z M24.36,193.64c0,64.2,0,127.94,0,191.96
		c1.69,0,3.14,0,4.58,0c17.32,0,34.65,0,51.97,0c11,0,15.19-4.2,15.19-15.2c0-53.83,0-107.67,0-161.5c0-1.2,0.03-2.4-0.04-3.6
		c-0.38-6.48-5.03-11.54-11.46-11.6C64.64,193.53,44.66,193.64,24.36,193.64z"/>
	<path class="st10" d="M231.31,0c6.91,3.19,9.33,8.65,8.88,16.09c-0.4,6.63-0.02,13.3-0.1,19.95c-0.09,7.43-5.15,12.73-11.98,12.73
		c-6.83,0-11.89-5.3-11.98-12.73c-0.08-6.65,0.3-13.32-0.1-19.95C215.58,8.65,218,3.19,224.91,0C227.04,0,229.18,0,231.31,0z"/>
	<path class="st10" d="M185.51,56.87c-0.52,5.07-2.66,8.74-6.9,10.96c-4.4,2.3-9.09,2.2-12.73-1.14
		c-6.67-6.12-13.11-12.52-19.2-19.21c-4.08-4.49-3.29-11.35,0.99-15.6c4.26-4.24,11.17-5.01,15.62-0.95
		c6.68,6.1,13.01,12.61,19.19,19.22C184.07,51.84,184.53,54.6,185.51,56.87z"/>
	<path class="st10" d="M271.12,55.67c0.74-1.44,1.62-4.52,3.55-6.64c5.38-5.9,11.11-11.5,16.88-17.02
		c5.2-4.98,12.45-4.83,17.16,0.04c4.6,4.76,4.58,11.78-0.32,16.87c-5.54,5.76-11.19,11.42-16.97,16.94
		c-3.83,3.65-8.46,4.42-13.31,2.19C273.58,65.96,271.37,62.22,271.12,55.67z"/>
	<path class="st3" d="M60.23,337.63c6.53,0.07,11.92,5.57,11.85,12.09c-0.07,6.53-5.57,11.92-12.09,11.85
		c-6.53-0.07-11.92-5.57-11.85-12.09C48.21,342.95,53.71,337.56,60.23,337.63z"/>
</g>
</svg>
